<?xml version="1.0" standalone="no"?>
<!DOCTYPE svg PUBLIC "-//W3C//DTD SVG 20010904//EN"
 "http://www.w3.org/TR/2001/REC-SVG-20010904/DTD/svg10.dtd">
<svg version="1.0" xmlns="http://www.w3.org/2000/svg"
 width="119.000000pt" height="120.000000pt" viewBox="0 0 119.000000 120.000000"
 preserveAspectRatio="xMidYMid meet">

<g transform="translate(0.000000,120.000000) scale(0.100000,-0.100000)"
fill="#000000" stroke="none">
<path d="M0 600 l0 -600 595 0 595 0 0 600 0 600 -595 0 -595 0 0 -600z m563
483 c-7 -2 -21 -2 -30 0 -10 3 -4 5 12 5 17 0 24 -2 18 -5z m120 0 c-7 -2 -21
-2 -30 0 -10 3 -4 5 12 5 17 0 24 -2 18 -5z m-186 -9 c-3 -3 -12 -4 -19 -1 -8
3 -5 6 6 6 11 1 17 -2 13 -5z m240 0 c-3 -3 -12 -4 -19 -1 -8 3 -5 6 6 6 11 1
17 -2 13 -5z m-317 -24 c-8 -5 -19 -10 -25 -10 -5 0 -3 5 5 10 8 5 20 10 25
10 6 0 3 -5 -5 -10z m416 -16 c18 -14 18 -14 -6 -3 -31 14 -36 19 -24 19 6 0
19 -7 30 -16z m70 -45 c3 -6 -5 -3 -20 6 -14 10 -26 19 -26 22 0 7 39 -17 46
-28z m-646 -44 c-24 -25 -46 -45 -49 -45 -3 0 15 20 39 45 24 25 46 45 49 45
3 0 -15 -20 -39 -45z m743 -50 c24 -35 15 -27 -44 40 -32 37 -35 42 -10 20 18
-16 42 -43 54 -60z m-344 24 c26 -26 46 -29 59 -8 19 30 47 24 47 -10 0 -16
-3 -33 -7 -37 -4 -4 -5 -17 -2 -30 3 -13 -2 -39 -13 -61 -11 -21 -26 -51 -34
-68 -12 -24 -25 -32 -64 -42 -64 -14 -122 -16 -130 -3 -4 6 8 10 27 11 18 0
42 4 53 9 15 6 7 9 -30 9 -29 1 -59 -5 -72 -14 -18 -13 -22 -12 -38 5 -10 11
-15 26 -12 33 3 8 0 20 -6 26 -9 9 -4 10 18 6 39 -7 90 7 90 26 0 8 6 19 14
25 11 8 7 10 -17 6 -27 -3 -32 -1 -37 21 -4 14 -1 35 5 48 12 22 12 22 26 -9
7 -18 18 -32 24 -32 6 0 9 4 6 9 -3 5 13 26 37 46 23 21 34 35 25 31 -20 -6
-21 -3 -11 33 5 22 7 22 16 5 6 -10 18 -26 26 -35z m-112 -5 c-3 -3 -12 -4
-19 -1 -8 3 -5 6 6 6 11 1 17 -2 13 -5z m-71 -87 c10 -15 27 -29 37 -33 25 -8
16 -27 -17 -39 -24 -8 -31 -6 -47 13 -26 32 -34 88 -19 120 l13 27 7 -31 c4
-17 15 -43 26 -57z m-282 38 c-9 -14 -18 -25 -21 -25 -5 0 5 18 20 38 17 22
18 13 1 -13z m650 -45 c25 -27 46 -52 46 -56 0 -4 -16 11 -36 34 -19 23 -45
49 -57 57 -12 8 -17 15 -11 15 6 0 32 -22 58 -50z m-434 37 c0 -2 -17 -19 -37
-38 l-38 -34 34 38 c33 34 41 42 41 34z m416 -49 l29 -33 -32 29 c-31 28 -38
36 -30 36 2 0 16 -15 33 -32z m-56 -42 c0 -14 -11 -38 -25 -53 l-26 -28 17 40
c8 22 18 46 21 53 8 19 13 14 13 -12z m45 -24 c-10 -43 -34 -62 -130 -107 -49
-23 -96 -49 -104 -58 -7 -9 -18 -17 -23 -17 -17 0 4 22 50 51 25 16 43 29 38
29 -15 0 -72 -34 -99 -59 -24 -22 -27 -23 -21 -6 4 11 11 26 17 33 10 13 6 15
-17 6 -8 -3 -12 -12 -9 -20 3 -8 0 -14 -5 -14 -6 0 -13 15 -15 33 -3 21 -4 19
-2 -8 2 -33 -1 -41 -15 -42 -19 -2 -34 33 -22 51 4 6 10 -2 13 -19 6 -28 7
-27 8 11 1 51 7 57 38 37 20 -14 32 -14 73 -5 27 6 55 9 62 7 39 -14 145 88
132 128 -5 17 -3 17 16 7 17 -9 20 -17 15 -38z m41 -18 c18 -14 18 -15 -3 -4
-14 6 -23 7 -23 1 0 -5 9 -13 20 -16 11 -4 27 -20 36 -37 10 -20 11 -28 3 -22
-9 5 -10 2 -5 -12 17 -45 18 -75 3 -92 -9 -9 -20 -29 -26 -43 -7 -20 -19 -28
-51 -33 -23 -3 -52 -14 -66 -23 -19 -12 -40 -14 -90 -10 -36 2 -68 7 -71 10
-3 3 -8 26 -10 51 -6 50 7 76 37 76 10 0 24 10 33 23 9 14 33 27 66 36 28 7
66 23 84 35 34 23 34 23 60 4 15 -11 27 -16 27 -11 0 6 -11 16 -25 23 -14 7
-25 18 -25 23 0 5 -6 4 -14 -3 -13 -10 -13 -8 -3 14 14 30 17 31 43 10z m-739
-46 c-3 -8 -6 -5 -6 6 -1 11 2 17 5 13 3 -3 4 -12 1 -19z m353 -43 c0 -5 -4
-3 -9 4 -8 12 -11 9 -16 -12 -4 -15 -4 -34 -1 -43 5 -12 2 -15 -11 -9 -42 16
-47 17 -28 2 11 -9 28 -17 38 -17 21 0 23 -16 2 -24 -8 -3 -23 -21 -32 -41
-17 -36 -32 -41 -68 -24 -15 7 -11 8 15 4 l35 -6 -34 16 c-18 8 -40 15 -48 15
-12 0 -14 9 -8 48 9 58 19 72 57 72 18 0 31 6 35 18 3 9 13 25 22 35 14 17 16
17 33 -5 10 -13 18 -27 18 -33z m627 23 c-3 -7 -5 -2 -5 12 0 14 2 19 5 13 2
-7 2 -19 0 -25z m-990 -70 c-3 -8 -6 -5 -6 6 -1 11 2 17 5 13 3 -3 4 -12 1
-19z m180 -50 c-3 -8 -6 -5 -6 6 -1 11 2 17 5 13 3 -3 4 -12 1 -19z m184 -14
c-12 -15 -21 -35 -21 -45 0 -21 -15 -33 -30 -24 -12 7 3 39 33 73 29 31 43 28
18 -4z m53 12 c-7 -18 -54 -50 -54 -37 0 8 47 51 56 51 2 0 1 -6 -2 -14z m41
-104 c-11 -11 -36 63 -30 87 7 23 9 20 20 -29 7 -30 12 -57 10 -58z m532 86
c-3 -8 -6 -5 -6 6 -1 11 2 17 5 13 3 -3 4 -12 1 -19z m-980 -10 c-3 -8 -6 -5
-6 6 -1 11 2 17 5 13 3 -3 4 -12 1 -19z m406 -30 c7 -27 1 -36 -15 -20 -16 16
-25 15 -25 -2 0 -8 5 -14 11 -13 6 1 10 -5 8 -13 -3 -11 -1 -12 8 -3 9 8 21 7
48 -4 22 -9 58 -13 99 -11 34 2 63 0 63 -3 0 -12 -47 -38 -82 -44 -42 -8 -117
10 -138 33 -16 17 -43 73 -38 77 9 7 44 24 49 25 4 0 9 -10 12 -22z m-204 -28
c11 -24 11 -24 -3 -6 -9 11 -16 24 -16 30 0 12 5 7 19 -24z m571 -19 c-5 -11
-15 -23 -21 -27 -6 -3 -3 5 6 20 20 30 30 35 15 7z m-515 -61 c10 -11 16 -20
13 -20 -3 0 -13 9 -23 20 -10 11 -16 20 -13 20 3 0 13 -9 23 -20z m485 17 c0
-2 -12 -14 -27 -28 l-28 -24 24 28 c23 25 31 32 31 24z m180 -37 c-6 -11 -13
-20 -16 -20 -2 0 0 9 6 20 6 11 13 20 16 20 2 0 0 -9 -6 -20z m-845 -26 c9
-15 12 -23 6 -20 -11 7 -35 46 -28 46 3 0 12 -12 22 -26z m570 -14 c-3 -5 -12
-10 -18 -10 -7 0 -6 4 3 10 19 12 23 12 15 0z m255 6 c0 -2 -8 -10 -17 -17
-16 -13 -17 -12 -4 4 13 16 21 21 21 13z m-720 -113 c0 -8 -9 0 -50 45 l-45
47 48 -45 c26 -24 47 -45 47 -47z m367 71 c-3 -3 -12 -4 -19 -1 -8 3 -5 6 6 6
11 1 17 -2 13 -5z m323 3 c0 -2 -17 -19 -37 -38 l-38 -34 34 38 c33 34 41 42
41 34z m-80 -71 c0 -2 -8 -10 -17 -17 -16 -13 -17 -12 -4 4 13 16 21 21 21 13z
m-530 -52 c0 -2 -9 0 -20 6 -11 6 -20 13 -20 16 0 2 9 0 20 -6 11 -6 20 -13
20 -16z m456 1 c-11 -8 -25 -15 -30 -15 -6 1 0 7 14 15 32 19 40 18 16 0z
m-273 -52 c-7 -2 -21 -2 -30 0 -10 3 -4 5 12 5 17 0 24 -2 18 -5z m110 0 c-7
-2 -19 -2 -25 0 -7 3 -2 5 12 5 14 0 19 -2 13 -5z"/>
<path d="M723 905 c-11 -19 -6 -55 7 -55 20 0 28 26 16 49 -12 22 -14 23 -23
6z"/>
<path d="M682 858 c2 -6 10 -14 16 -16 7 -2 10 2 6 12 -7 18 -28 22 -22 4z"/>
<path d="M589 813 c-8 -9 -9 -14 -3 -10 7 4 14 -3 18 -18 4 -17 13 -25 29 -25
16 0 18 3 8 9 -9 6 -10 11 -2 15 16 10 3 26 -22 27 -20 1 -20 2 3 9 22 7 23 8
4 9 -12 1 -28 -7 -35 -16z"/>
<path d="M480 700 c0 -13 11 -13 30 0 12 8 11 10 -7 10 -13 0 -23 -4 -23 -10z"/>
<path d="M765 609 c4 -5 13 -9 22 -9 9 0 25 -8 35 -17 18 -16 18 -16 12 0 -3
9 -7 17 -8 17 0 0 -16 4 -34 9 -20 6 -30 6 -27 0z"/>
<path d="M680 525 c-14 -8 -20 -14 -14 -15 5 0 19 7 30 15 24 18 16 19 -16 0z"/>
<path d="M758 513 c7 -3 16 -2 19 1 4 3 -2 6 -13 5 -11 0 -14 -3 -6 -6z"/>
<path d="M618 503 c6 -2 18 -2 25 0 6 3 1 5 -13 5 -14 0 -19 -2 -12 -5z"/>
<path d="M769 483 c-13 -16 -12 -17 4 -4 16 13 21 21 13 21 -2 0 -10 -8 -17
-17z"/>
<path d="M660 486 c0 -2 9 -6 20 -9 11 -3 20 -1 20 4 0 5 -9 9 -20 9 -11 0
-20 -2 -20 -4z"/>
<path d="M325 560 c3 -5 14 -10 23 -10 15 0 15 2 2 10 -20 13 -33 13 -25 0z"/>
<path d="M368 513 c6 -2 18 -2 25 0 6 3 1 5 -13 5 -14 0 -19 -2 -12 -5z"/>
</g>
</svg>
